<?xml version="1.0" encoding="UTF-8" standalone="no"?>
<!DOCTYPE svg PUBLIC "-//W3C//DTD SVG 1.1//EN"
 "http://www.w3.org/Graphics/SVG/1.1/DTD/svg11.dtd">
<!-- Generated by graphviz version 8.0.5 (20230430.1635)
 -->
<!-- Title: Tree Pages: 1 -->
<svg width="662pt" height="552pt"
 viewBox="0.00 0.00 662.38 552.00" xmlns="http://www.w3.org/2000/svg" xmlns:xlink="http://www.w3.org/1999/xlink">
<g id="graph0" class="graph" transform="scale(1 1) rotate(0) translate(4 548)">
<title>Tree</title>
<polygon fill="white" stroke="none" points="-4,4 -4,-548 658.38,-548 658.38,4 -4,4"/>
<!-- 0 -->
<g id="node1" class="node">
<title>0</title>
<polygon fill="#fffdfd" stroke="black" points="257.88,-544 126.38,-544 126.38,-461 257.88,-461 257.88,-544"/>
<text text-anchor="middle" x="192.12" y="-526.7" font-family="Helvetica,sans-Serif" font-size="14.00">x[2] &lt;= 2.45</text>
<text text-anchor="middle" x="192.12" y="-511.7" font-family="Helvetica,sans-Serif" font-size="14.00">gini = 0.667</text>
<text text-anchor="middle" x="192.12" y="-496.7" font-family="Helvetica,sans-Serif" font-size="14.00">samples = 120</text>
<text text-anchor="middle" x="192.12" y="-481.7" font-family="Helvetica,sans-Serif" font-size="14.00">value = [41, 40, 39]</text>
<text text-anchor="middle" x="192.12" y="-466.7" font-family="Helvetica,sans-Serif" font-size="14.00">class = setosa</text>
</g>
<!-- 1 -->
<g id="node2" class="node">
<title>1</title>
<polygon fill="#e58139" stroke="black" points="181.38,-417.5 64.88,-417.5 64.88,-349.5 181.38,-349.5 181.38,-417.5"/>
<text text-anchor="middle" x="123.12" y="-400.2" font-family="Helvetica,sans-Serif" font-size="14.00">gini = 0.0</text>
<text text-anchor="middle" x="123.12" y="-385.2" font-family="Helvetica,sans-Serif" font-size="14.00">samples = 41</text>
<text text-anchor="middle" x="123.12" y="-370.2" font-family="Helvetica,sans-Serif" font-size="14.00">value = [41, 0, 0]</text>
<text text-anchor="middle" x="123.12" y="-355.2" font-family="Helvetica,sans-Serif" font-size="14.00">class = setosa</text>
</g>
<!-- 0&#45;&gt;1 -->
<g id="edge1" class="edge">
<title>0&#45;&gt;1</title>
<path fill="none" stroke="black" d="M167.99,-460.58C161.62,-449.77 154.73,-438.09 148.3,-427.19"/>
<polygon fill="black" stroke="black" points="150.89,-425.7 142.8,-418.86 144.86,-429.25 150.89,-425.7"/>
<text text-anchor="middle" x="136.55" y="-436.27" font-family="Helvetica,sans-Serif" font-size="14.00">True</text>
</g>
<!-- 2 -->
<g id="node3" class="node">
<title>2</title>
<polygon fill="#fafefc" stroke="black" points="323.12,-425 199.12,-425 199.12,-342 323.12,-342 323.12,-425"/>
<text text-anchor="middle" x="261.12" y="-407.7" font-family="Helvetica,sans-Serif" font-size="14.00">x[3] &lt;= 1.55</text>
<text text-anchor="middle" x="261.12" y="-392.7" font-family="Helvetica,sans-Serif" font-size="14.00">gini = 0.5</text>
<text text-anchor="middle" x="261.12" y="-377.7" font-family="Helvetica,sans-Serif" font-size="14.00">samples = 79</text>
<text text-anchor="middle" x="261.12" y="-362.7" font-family="Helvetica,sans-Serif" font-size="14.00">value = [0, 40, 39]</text>
<text text-anchor="middle" x="261.12" y="-347.7" font-family="Helvetica,sans-Serif" font-size="14.00">class = versicolor</text>
</g>
<!-- 0&#45;&gt;2 -->
<g id="edge2" class="edge">
<title>0&#45;&gt;2</title>
<path fill="none" stroke="black" d="M216.26,-460.58C221.22,-452.16 226.51,-443.2 231.64,-434.5"/>
<polygon fill="black" stroke="black" points="235.06,-436.59 237.12,-426.2 229.03,-433.04 235.06,-436.59"/>
<text text-anchor="middle" x="243.37" y="-443.61" font-family="Helvetica,sans-Serif" font-size="14.00">False</text>
</g>
<!-- 3 -->
<g id="node4" class="node">
<title>3</title>
<polygon fill="#3ee684" stroke="black" points="253.25,-306 133,-306 133,-223 253.25,-223 253.25,-306"/>
<text text-anchor="middle" x="193.12" y="-288.7" font-family="Helvetica,sans-Serif" font-size="14.00">x[2] &lt;= 5.25</text>
<text text-anchor="middle" x="193.12" y="-273.7" font-family="Helvetica,sans-Serif" font-size="14.00">gini = 0.051</text>
<text text-anchor="middle" x="193.12" y="-258.7" font-family="Helvetica,sans-Serif" font-size="14.00">samples = 38</text>
<text text-anchor="middle" x="193.12" y="-243.7" font-family="Helvetica,sans-Serif" font-size="14.00">value = [0, 37, 1]</text>
<text text-anchor="middle" x="193.12" y="-228.7" font-family="Helvetica,sans-Serif" font-size="14.00">class = versicolor</text>
</g>
<!-- 2&#45;&gt;3 -->
<g id="edge3" class="edge">
<title>2&#45;&gt;3</title>
<path fill="none" stroke="black" d="M237.34,-341.58C232.45,-333.16 227.24,-324.2 222.19,-315.5"/>
<polygon fill="black" stroke="black" points="224.83,-314.09 216.78,-307.2 218.78,-317.6 224.83,-314.09"/>
</g>
<!-- 6 -->
<g id="node7" class="node">
<title>6</title>
<polygon fill="#8b49e7" stroke="black" points="387.38,-306 270.88,-306 270.88,-223 387.38,-223 387.38,-306"/>
<text text-anchor="middle" x="329.12" y="-288.7" font-family="Helvetica,sans-Serif" font-size="14.00">x[3] &lt;= 1.75</text>
<text text-anchor="middle" x="329.12" y="-273.7" font-family="Helvetica,sans-Serif" font-size="14.00">gini = 0.136</text>
<text text-anchor="middle" x="329.12" y="-258.7" font-family="Helvetica,sans-Serif" font-size="14.00">samples = 41</text>
<text text-anchor="middle" x="329.12" y="-243.7" font-family="Helvetica,sans-Serif" font-size="14.00">value = [0, 3, 38]</text>
<text text-anchor="middle" x="329.12" y="-228.7" font-family="Helvetica,sans-Serif" font-size="14.00">class = virginica</text>
</g>
<!-- 2&#45;&gt;6 -->
<g id="edge6" class="edge">
<title>2&#45;&gt;6</title>
<path fill="none" stroke="black" d="M284.91,-341.58C289.8,-333.16 295.01,-324.2 300.06,-315.5"/>
<polygon fill="black" stroke="black" points="303.47,-317.6 305.47,-307.2 297.42,-314.09 303.47,-317.6"/>
</g>
<!-- 4 -->
<g id="node5" class="node">
<title>4</title>
<polygon fill="#39e581" stroke="black" points="120.25,-179.5 0,-179.5 0,-111.5 120.25,-111.5 120.25,-179.5"/>
<text text-anchor="middle" x="60.12" y="-162.2" font-family="Helvetica,sans-Serif" font-size="14.00">gini = 0.0</text>
<text text-anchor="middle" x="60.12" y="-147.2" font-family="Helvetica,sans-Serif" font-size="14.00">samples = 37</text>
<text text-anchor="middle" x="60.12" y="-132.2" font-family="Helvetica,sans-Serif" font-size="14.00">value = [0, 37, 0]</text>
<text text-anchor="middle" x="60.12" y="-117.2" font-family="Helvetica,sans-Serif" font-size="14.00">class = versicolor</text>
</g>
<!-- 3&#45;&gt;4 -->
<g id="edge4" class="edge">
<title>3&#45;&gt;4</title>
<path fill="none" stroke="black" d="M146.61,-222.58C133.46,-211.01 119.16,-198.43 106.04,-186.89"/>
<polygon fill="black" stroke="black" points="108.87,-183.84 99.05,-179.86 104.24,-189.09 108.87,-183.84"/>
</g>
<!-- 5 -->
<g id="node6" class="node">
<title>5</title>
<polygon fill="#8139e5" stroke="black" points="250.12,-179.5 138.12,-179.5 138.12,-111.5 250.12,-111.5 250.12,-179.5"/>
<text text-anchor="middle" x="194.12" y="-162.2" font-family="Helvetica,sans-Serif" font-size="14.00">gini = 0.0</text>
<text text-anchor="middle" x="194.12" y="-147.2" font-family="Helvetica,sans-Serif" font-size="14.00">samples = 1</text>
<text text-anchor="middle" x="194.12" y="-132.2" font-family="Helvetica,sans-Serif" font-size="14.00">value = [0, 0, 1]</text>
<text text-anchor="middle" x="194.12" y="-117.2" font-family="Helvetica,sans-Serif" font-size="14.00">class = virginica</text>
</g>
<!-- 3&#45;&gt;5 -->
<g id="edge5" class="edge">
<title>3&#45;&gt;5</title>
<path fill="none" stroke="black" d="M193.47,-222.58C193.56,-212.32 193.66,-201.27 193.75,-190.85"/>
<polygon fill="black" stroke="black" points="197.25,-190.89 193.84,-180.86 190.25,-190.83 197.25,-190.89"/>
</g>
<!-- 7 -->
<g id="node8" class="node">
<title>7</title>
<polygon fill="#ffffff" stroke="black" points="389.25,-187 269,-187 269,-104 389.25,-104 389.25,-187"/>
<text text-anchor="middle" x="329.12" y="-169.7" font-family="Helvetica,sans-Serif" font-size="14.00">x[0] &lt;= 5.45</text>
<text text-anchor="middle" x="329.12" y="-154.7" font-family="Helvetica,sans-Serif" font-size="14.00">gini = 0.5</text>
<text text-anchor="middle" x="329.12" y="-139.7" font-family="Helvetica,sans-Serif" font-size="14.00">samples = 4</text>
<text text-anchor="middle" x="329.12" y="-124.7" font-family="Helvetica,sans-Serif" font-size="14.00">value = [0, 2, 2]</text>
<text text-anchor="middle" x="329.12" y="-109.7" font-family="Helvetica,sans-Serif" font-size="14.00">class = versicolor</text>
</g>
<!-- 6&#45;&gt;7 -->
<g id="edge7" class="edge">
<title>6&#45;&gt;7</title>
<path fill="none" stroke="black" d="M329.12,-222.58C329.12,-214.7 329.12,-206.34 329.12,-198.17"/>
<polygon fill="black" stroke="black" points="332.63,-198.2 329.12,-188.2 325.63,-198.2 332.63,-198.2"/>
</g>
<!-- 10 -->
<g id="node11" class="node">
<title>10</title>
<polygon fill="#843ee6" stroke="black" points="523.38,-187 406.88,-187 406.88,-104 523.38,-104 523.38,-187"/>
<text text-anchor="middle" x="465.12" y="-169.7" font-family="Helvetica,sans-Serif" font-size="14.00">x[2] &lt;= 4.85</text>
<text text-anchor="middle" x="465.12" y="-154.7" font-family="Helvetica,sans-Serif" font-size="14.00">gini = 0.053</text>
<text text-anchor="middle" x="465.12" y="-139.7" font-family="Helvetica,sans-Serif" font-size="14.00">samples = 37</text>
<text text-anchor="middle" x="465.12" y="-124.7" font-family="Helvetica,sans-Serif" font-size="14.00">value = [0, 1, 36]</text>
<text text-anchor="middle" x="465.12" y="-109.7" font-family="Helvetica,sans-Serif" font-size="14.00">class = virginica</text>
</g>
<!-- 6&#45;&gt;10 -->
<g id="edge10" class="edge">
<title>6&#45;&gt;10</title>
<path fill="none" stroke="black" d="M376.69,-222.58C387.31,-213.44 398.67,-203.67 409.58,-194.29"/>
<polygon fill="black" stroke="black" points="411.52,-196.38 416.82,-187.2 406.95,-191.07 411.52,-196.38"/>
</g>
<!-- 8 -->
<g id="node9" class="node">
<title>8</title>
<polygon fill="#8139e5" stroke="black" points="251.12,-68 139.12,-68 139.12,0 251.12,0 251.12,-68"/>
<text text-anchor="middle" x="195.12" y="-50.7" font-family="Helvetica,sans-Serif" font-size="14.00">gini = 0.0</text>
<text text-anchor="middle" x="195.12" y="-35.7" font-family="Helvetica,sans-Serif" font-size="14.00">samples = 1</text>
<text text-anchor="middle" x="195.12" y="-20.7" font-family="Helvetica,sans-Serif" font-size="14.00">value = [0, 0, 1]</text>
<text text-anchor="middle" x="195.12" y="-5.7" font-family="Helvetica,sans-Serif" font-size="14.00">class = virginica</text>
</g>
<!-- 7&#45;&gt;8 -->
<g id="edge8" class="edge">
<title>7&#45;&gt;8</title>
<path fill="none" stroke="black" d="M279.23,-103.73C267.73,-94.33 255.52,-84.35 244.06,-74.99"/>
<polygon fill="black" stroke="black" points="246.83,-71.92 236.88,-68.3 242.4,-77.34 246.83,-71.92"/>
</g>
<!-- 9 -->
<g id="node10" class="node">
<title>9</title>
<polygon fill="#9cf2c0" stroke="black" points="389.25,-68 269,-68 269,0 389.25,0 389.25,-68"/>
<text text-anchor="middle" x="329.12" y="-50.7" font-family="Helvetica,sans-Serif" font-size="14.00">gini = 0.444</text>
<text text-anchor="middle" x="329.12" y="-35.7" font-family="Helvetica,sans-Serif" font-size="14.00">samples = 3</text>
<text text-anchor="middle" x="329.12" y="-20.7" font-family="Helvetica,sans-Serif" font-size="14.00">value = [0, 2, 1]</text>
<text text-anchor="middle" x="329.12" y="-5.7" font-family="Helvetica,sans-Serif" font-size="14.00">class = versicolor</text>
</g>
<!-- 7&#45;&gt;9 -->
<g id="edge9" class="edge">
<title>7&#45;&gt;9</title>
<path fill="none" stroke="black" d="M329.12,-103.73C329.12,-95.7 329.12,-87.24 329.12,-79.11"/>
<polygon fill="black" stroke="black" points="332.63,-79.3 329.12,-69.3 325.63,-79.3 332.63,-79.3"/>
</g>
<!-- 11 -->
<g id="node12" class="node">
<title>11</title>
<polygon fill="#c09cf2" stroke="black" points="520.12,-68 408.12,-68 408.12,0 520.12,0 520.12,-68"/>
<text text-anchor="middle" x="464.12" y="-50.7" font-family="Helvetica,sans-Serif" font-size="14.00">gini = 0.444</text>
<text text-anchor="middle" x="464.12" y="-35.7" font-family="Helvetica,sans-Serif" font-size="14.00">samples = 3</text>
<text text-anchor="middle" x="464.12" y="-20.7" font-family="Helvetica,sans-Serif" font-size="14.00">value = [0, 1, 2]</text>
<text text-anchor="middle" x="464.12" y="-5.7" font-family="Helvetica,sans-Serif" font-size="14.00">class = virginica</text>
</g>
<!-- 10&#45;&gt;11 -->
<g id="edge11" class="edge">
<title>10&#45;&gt;11</title>
<path fill="none" stroke="black" d="M464.75,-103.73C464.68,-95.7 464.6,-87.24 464.53,-79.11"/>
<polygon fill="black" stroke="black" points="468.02,-79.27 464.43,-69.3 461.02,-79.33 468.02,-79.27"/>
</g>
<!-- 12 -->
<g id="node13" class="node">
<title>12</title>
<polygon fill="#8139e5" stroke="black" points="654.38,-68 537.88,-68 537.88,0 654.38,0 654.38,-68"/>
<text text-anchor="middle" x="596.12" y="-50.7" font-family="Helvetica,sans-Serif" font-size="14.00">gini = 0.0</text>
<text text-anchor="middle" x="596.12" y="-35.7" font-family="Helvetica,sans-Serif" font-size="14.00">samples = 34</text>
<text text-anchor="middle" x="596.12" y="-20.7" font-family="Helvetica,sans-Serif" font-size="14.00">value = [0, 0, 34]</text>
<text text-anchor="middle" x="596.12" y="-5.7" font-family="Helvetica,sans-Serif" font-size="14.00">class = virginica</text>
</g>
<!-- 10&#45;&gt;12 -->
<g id="edge12" class="edge">
<title>10&#45;&gt;12</title>
<path fill="none" stroke="black" d="M513.9,-103.73C525.03,-94.42 536.85,-84.54 547.96,-75.26"/>
<polygon fill="black" stroke="black" points="549.86,-77.4 555.29,-68.3 545.37,-72.03 549.86,-77.4"/>
</g>
</g>
</svg>
