<?xml version="1.0" encoding="UTF-8" standalone="no"?>
<!DOCTYPE svg PUBLIC "-//W3C//DTD SVG 1.1//EN"
 "http://www.w3.org/Graphics/SVG/1.1/DTD/svg11.dtd">
<!-- Generated by graphviz version 8.0.5 (20230430.1635)
 -->
<!-- Title: Tree Pages: 1 -->
<svg width="531pt" height="433pt"
 viewBox="0.00 0.00 531.38 433.00" xmlns="http://www.w3.org/2000/svg" xmlns:xlink="http://www.w3.org/1999/xlink">
<g id="graph0" class="graph" transform="scale(1 1) rotate(0) translate(4 429)">
<title>Tree</title>
<polygon fill="white" stroke="none" points="-4,4 -4,-429 527.38,-429 527.38,4 -4,4"/>
<!-- 0 -->
<g id="node1" class="node">
<title>0</title>
<polygon fill="#fffdfd" stroke="black" points="257.88,-425 126.38,-425 126.38,-342 257.88,-342 257.88,-425"/>
<text text-anchor="middle" x="192.12" y="-407.7" font-family="Helvetica,sans-Serif" font-size="14.00">x[2] &lt;= 2.45</text>
<text text-anchor="middle" x="192.12" y="-392.7" font-family="Helvetica,sans-Serif" font-size="14.00">gini = 0.667</text>
<text text-anchor="middle" x="192.12" y="-377.7" font-family="Helvetica,sans-Serif" font-size="14.00">samples = 120</text>
<text text-anchor="middle" x="192.12" y="-362.7" font-family="Helvetica,sans-Serif" font-size="14.00">value = [41, 40, 39]</text>
<text text-anchor="middle" x="192.12" y="-347.7" font-family="Helvetica,sans-Serif" font-size="14.00">class = setosa</text>
</g>
<!-- 1 -->
<g id="node2" class="node">
<title>1</title>
<polygon fill="#e58139" stroke="black" points="181.38,-298.5 64.88,-298.5 64.88,-230.5 181.38,-230.5 181.38,-298.5"/>
<text text-anchor="middle" x="123.12" y="-281.2" font-family="Helvetica,sans-Serif" font-size="14.00">gini = 0.0</text>
<text text-anchor="middle" x="123.12" y="-266.2" font-family="Helvetica,sans-Serif" font-size="14.00">samples = 41</text>
<text text-anchor="middle" x="123.12" y="-251.2" font-family="Helvetica,sans-Serif" font-size="14.00">value = [41, 0, 0]</text>
<text text-anchor="middle" x="123.12" y="-236.2" font-family="Helvetica,sans-Serif" font-size="14.00">class = setosa</text>
</g>
<!-- 0&#45;&gt;1 -->
<g id="edge1" class="edge">
<title>0&#45;&gt;1</title>
<path fill="none" stroke="black" d="M167.99,-341.58C161.62,-330.77 154.73,-319.09 148.3,-308.19"/>
<polygon fill="black" stroke="black" points="150.89,-306.7 142.8,-299.86 144.86,-310.25 150.89,-306.7"/>
<text text-anchor="middle" x="136.55" y="-317.27" font-family="Helvetica,sans-Serif" font-size="14.00">True</text>
</g>
<!-- 2 -->
<g id="node3" class="node">
<title>2</title>
<polygon fill="#fafefc" stroke="black" points="323.12,-306 199.12,-306 199.12,-223 323.12,-223 323.12,-306"/>
<text text-anchor="middle" x="261.12" y="-288.7" font-family="Helvetica,sans-Serif" font-size="14.00">x[3] &lt;= 1.55</text>
<text text-anchor="middle" x="261.12" y="-273.7" font-family="Helvetica,sans-Serif" font-size="14.00">gini = 0.5</text>
<text text-anchor="middle" x="261.12" y="-258.7" font-family="Helvetica,sans-Serif" font-size="14.00">samples = 79</text>
<text text-anchor="middle" x="261.12" y="-243.7" font-family="Helvetica,sans-Serif" font-size="14.00">value = [0, 40, 39]</text>
<text text-anchor="middle" x="261.12" y="-228.7" font-family="Helvetica,sans-Serif" font-size="14.00">class = versicolor</text>
</g>
<!-- 0&#45;&gt;2 -->
<g id="edge2" class="edge">
<title>0&#45;&gt;2</title>
<path fill="none" stroke="black" d="M216.26,-341.58C221.22,-333.16 226.51,-324.2 231.64,-315.5"/>
<polygon fill="black" stroke="black" points="235.06,-317.59 237.12,-307.2 229.03,-314.04 235.06,-317.59"/>
<text text-anchor="middle" x="243.37" y="-324.61" font-family="Helvetica,sans-Serif" font-size="14.00">False</text>
</g>
<!-- 3 -->
<g id="node4" class="node">
<title>3</title>
<polygon fill="#3ee684" stroke="black" points="253.25,-187 133,-187 133,-104 253.25,-104 253.25,-187"/>
<text text-anchor="middle" x="193.12" y="-169.7" font-family="Helvetica,sans-Serif" font-size="14.00">x[2] &lt;= 5.25</text>
<text text-anchor="middle" x="193.12" y="-154.7" font-family="Helvetica,sans-Serif" font-size="14.00">gini = 0.051</text>
<text text-anchor="middle" x="193.12" y="-139.7" font-family="Helvetica,sans-Serif" font-size="14.00">samples = 38</text>
<text text-anchor="middle" x="193.12" y="-124.7" font-family="Helvetica,sans-Serif" font-size="14.00">value = [0, 37, 1]</text>
<text text-anchor="middle" x="193.12" y="-109.7" font-family="Helvetica,sans-Serif" font-size="14.00">class = versicolor</text>
</g>
<!-- 2&#45;&gt;3 -->
<g id="edge3" class="edge">
<title>2&#45;&gt;3</title>
<path fill="none" stroke="black" d="M237.34,-222.58C232.45,-214.16 227.24,-205.2 222.19,-196.5"/>
<polygon fill="black" stroke="black" points="224.83,-195.09 216.78,-188.2 218.78,-198.6 224.83,-195.09"/>
</g>
<!-- 6 -->
<g id="node7" class="node">
<title>6</title>
<polygon fill="#8b49e7" stroke="black" points="387.38,-187 270.88,-187 270.88,-104 387.38,-104 387.38,-187"/>
<text text-anchor="middle" x="329.12" y="-169.7" font-family="Helvetica,sans-Serif" font-size="14.00">x[3] &lt;= 1.75</text>
<text text-anchor="middle" x="329.12" y="-154.7" font-family="Helvetica,sans-Serif" font-size="14.00">gini = 0.136</text>
<text text-anchor="middle" x="329.12" y="-139.7" font-family="Helvetica,sans-Serif" font-size="14.00">samples = 41</text>
<text text-anchor="middle" x="329.12" y="-124.7" font-family="Helvetica,sans-Serif" font-size="14.00">value = [0, 3, 38]</text>
<text text-anchor="middle" x="329.12" y="-109.7" font-family="Helvetica,sans-Serif" font-size="14.00">class = virginica</text>
</g>
<!-- 2&#45;&gt;6 -->
<g id="edge6" class="edge">
<title>2&#45;&gt;6</title>
<path fill="none" stroke="black" d="M284.91,-222.58C289.8,-214.16 295.01,-205.2 300.06,-196.5"/>
<polygon fill="black" stroke="black" points="303.47,-198.6 305.47,-188.2 297.42,-195.09 303.47,-198.6"/>
</g>
<!-- 4 -->
<g id="node5" class="node">
<title>4</title>
<polygon fill="#39e581" stroke="black" points="120.25,-68 0,-68 0,0 120.25,0 120.25,-68"/>
<text text-anchor="middle" x="60.12" y="-50.7" font-family="Helvetica,sans-Serif" font-size="14.00">gini = 0.0</text>
<text text-anchor="middle" x="60.12" y="-35.7" font-family="Helvetica,sans-Serif" font-size="14.00">samples = 37</text>
<text text-anchor="middle" x="60.12" y="-20.7" font-family="Helvetica,sans-Serif" font-size="14.00">value = [0, 37, 0]</text>
<text text-anchor="middle" x="60.12" y="-5.7" font-family="Helvetica,sans-Serif" font-size="14.00">class = versicolor</text>
</g>
<!-- 3&#45;&gt;4 -->
<g id="edge4" class="edge">
<title>3&#45;&gt;4</title>
<path fill="none" stroke="black" d="M143.6,-103.73C132.3,-94.42 120.3,-84.54 109.03,-75.26"/>
<polygon fill="black" stroke="black" points="111.52,-71.95 101.57,-68.3 107.07,-77.36 111.52,-71.95"/>
</g>
<!-- 5 -->
<g id="node6" class="node">
<title>5</title>
<polygon fill="#8139e5" stroke="black" points="250.12,-68 138.12,-68 138.12,0 250.12,0 250.12,-68"/>
<text text-anchor="middle" x="194.12" y="-50.7" font-family="Helvetica,sans-Serif" font-size="14.00">gini = 0.0</text>
<text text-anchor="middle" x="194.12" y="-35.7" font-family="Helvetica,sans-Serif" font-size="14.00">samples = 1</text>
<text text-anchor="middle" x="194.12" y="-20.7" font-family="Helvetica,sans-Serif" font-size="14.00">value = [0, 0, 1]</text>
<text text-anchor="middle" x="194.12" y="-5.7" font-family="Helvetica,sans-Serif" font-size="14.00">class = virginica</text>
</g>
<!-- 3&#45;&gt;5 -->
<g id="edge5" class="edge">
<title>3&#45;&gt;5</title>
<path fill="none" stroke="black" d="M193.5,-103.73C193.57,-95.7 193.65,-87.24 193.72,-79.11"/>
<polygon fill="black" stroke="black" points="197.23,-79.33 193.82,-69.3 190.23,-79.27 197.23,-79.33"/>
</g>
<!-- 7 -->
<g id="node8" class="node">
<title>7</title>
<polygon fill="#ffffff" stroke="black" points="389.25,-68 269,-68 269,0 389.25,0 389.25,-68"/>
<text text-anchor="middle" x="329.12" y="-50.7" font-family="Helvetica,sans-Serif" font-size="14.00">gini = 0.5</text>
<text text-anchor="middle" x="329.12" y="-35.7" font-family="Helvetica,sans-Serif" font-size="14.00">samples = 4</text>
<text text-anchor="middle" x="329.12" y="-20.7" font-family="Helvetica,sans-Serif" font-size="14.00">value = [0, 2, 2]</text>
<text text-anchor="middle" x="329.12" y="-5.7" font-family="Helvetica,sans-Serif" font-size="14.00">class = versicolor</text>
</g>
<!-- 6&#45;&gt;7 -->
<g id="edge7" class="edge">
<title>6&#45;&gt;7</title>
<path fill="none" stroke="black" d="M329.12,-103.73C329.12,-95.7 329.12,-87.24 329.12,-79.11"/>
<polygon fill="black" stroke="black" points="332.63,-79.3 329.12,-69.3 325.63,-79.3 332.63,-79.3"/>
</g>
<!-- 8 -->
<g id="node9" class="node">
<title>8</title>
<polygon fill="#843ee6" stroke="black" points="523.38,-68 406.88,-68 406.88,0 523.38,0 523.38,-68"/>
<text text-anchor="middle" x="465.12" y="-50.7" font-family="Helvetica,sans-Serif" font-size="14.00">gini = 0.053</text>
<text text-anchor="middle" x="465.12" y="-35.7" font-family="Helvetica,sans-Serif" font-size="14.00">samples = 37</text>
<text text-anchor="middle" x="465.12" y="-20.7" font-family="Helvetica,sans-Serif" font-size="14.00">value = [0, 1, 36]</text>
<text text-anchor="middle" x="465.12" y="-5.7" font-family="Helvetica,sans-Serif" font-size="14.00">class = virginica</text>
</g>
<!-- 6&#45;&gt;8 -->
<g id="edge8" class="edge">
<title>6&#45;&gt;8</title>
<path fill="none" stroke="black" d="M379.77,-103.73C391.43,-94.33 403.83,-84.35 415.46,-74.99"/>
<polygon fill="black" stroke="black" points="417.17,-77.3 422.77,-68.3 412.78,-71.84 417.17,-77.3"/>
</g>
</g>
</svg>
