<?xml version="1.0" encoding="UTF-8" standalone="no"?>
<!DOCTYPE svg PUBLIC "-//W3C//DTD SVG 1.1//EN"
 "http://www.w3.org/Graphics/SVG/1.1/DTD/svg11.dtd">
<!-- Generated by graphviz version 8.0.5 (20230430.1635)
 -->
<!-- Title: Tree Pages: 1 -->
<svg width="604pt" height="552pt"
 viewBox="0.00 0.00 604.38 552.00" xmlns="http://www.w3.org/2000/svg" xmlns:xlink="http://www.w3.org/1999/xlink">
<g id="graph0" class="graph" transform="scale(1 1) rotate(0) translate(4 548)">
<title>Tree</title>
<polygon fill="white" stroke="none" points="-4,4 -4,-548 600.38,-548 600.38,4 -4,4"/>
<!-- 0 -->
<g id="node1" class="node">
<title>0</title>
<polygon fill="#fffdfd" stroke="black" points="263.88,-544 132.38,-544 132.38,-461 263.88,-461 263.88,-544"/>
<text text-anchor="middle" x="198.12" y="-526.7" font-family="Helvetica,sans-Serif" font-size="14.00">x[2] &lt;= 2.45</text>
<text text-anchor="middle" x="198.12" y="-511.7" font-family="Helvetica,sans-Serif" font-size="14.00">gini = 0.667</text>
<text text-anchor="middle" x="198.12" y="-496.7" font-family="Helvetica,sans-Serif" font-size="14.00">samples = 120</text>
<text text-anchor="middle" x="198.12" y="-481.7" font-family="Helvetica,sans-Serif" font-size="14.00">value = [41, 40, 39]</text>
<text text-anchor="middle" x="198.12" y="-466.7" font-family="Helvetica,sans-Serif" font-size="14.00">class = setosa</text>
</g>
<!-- 1 -->
<g id="node2" class="node">
<title>1</title>
<polygon fill="#e58139" stroke="black" points="187.38,-417.5 70.88,-417.5 70.88,-349.5 187.38,-349.5 187.38,-417.5"/>
<text text-anchor="middle" x="129.12" y="-400.2" font-family="Helvetica,sans-Serif" font-size="14.00">gini = 0.0</text>
<text text-anchor="middle" x="129.12" y="-385.2" font-family="Helvetica,sans-Serif" font-size="14.00">samples = 41</text>
<text text-anchor="middle" x="129.12" y="-370.2" font-family="Helvetica,sans-Serif" font-size="14.00">value = [41, 0, 0]</text>
<text text-anchor="middle" x="129.12" y="-355.2" font-family="Helvetica,sans-Serif" font-size="14.00">class = setosa</text>
</g>
<!-- 0&#45;&gt;1 -->
<g id="edge1" class="edge">
<title>0&#45;&gt;1</title>
<path fill="none" stroke="black" d="M173.99,-460.58C167.62,-449.77 160.73,-438.09 154.3,-427.19"/>
<polygon fill="black" stroke="black" points="156.89,-425.7 148.8,-418.86 150.86,-429.25 156.89,-425.7"/>
<text text-anchor="middle" x="142.55" y="-436.27" font-family="Helvetica,sans-Serif" font-size="14.00">True</text>
</g>
<!-- 2 -->
<g id="node3" class="node">
<title>2</title>
<polygon fill="#fafefc" stroke="black" points="329.12,-425 205.12,-425 205.12,-342 329.12,-342 329.12,-425"/>
<text text-anchor="middle" x="267.12" y="-407.7" font-family="Helvetica,sans-Serif" font-size="14.00">x[3] &lt;= 1.55</text>
<text text-anchor="middle" x="267.12" y="-392.7" font-family="Helvetica,sans-Serif" font-size="14.00">gini = 0.5</text>
<text text-anchor="middle" x="267.12" y="-377.7" font-family="Helvetica,sans-Serif" font-size="14.00">samples = 79</text>
<text text-anchor="middle" x="267.12" y="-362.7" font-family="Helvetica,sans-Serif" font-size="14.00">value = [0, 40, 39]</text>
<text text-anchor="middle" x="267.12" y="-347.7" font-family="Helvetica,sans-Serif" font-size="14.00">class = versicolor</text>
</g>
<!-- 0&#45;&gt;2 -->
<g id="edge2" class="edge">
<title>0&#45;&gt;2</title>
<path fill="none" stroke="black" d="M222.26,-460.58C227.22,-452.16 232.51,-443.2 237.64,-434.5"/>
<polygon fill="black" stroke="black" points="241.06,-436.59 243.12,-426.2 235.03,-433.04 241.06,-436.59"/>
<text text-anchor="middle" x="249.37" y="-443.61" font-family="Helvetica,sans-Serif" font-size="14.00">False</text>
</g>
<!-- 3 -->
<g id="node4" class="node">
<title>3</title>
<polygon fill="#3ee684" stroke="black" points="258.25,-306 138,-306 138,-223 258.25,-223 258.25,-306"/>
<text text-anchor="middle" x="198.12" y="-288.7" font-family="Helvetica,sans-Serif" font-size="14.00">x[2] &lt;= 4.75</text>
<text text-anchor="middle" x="198.12" y="-273.7" font-family="Helvetica,sans-Serif" font-size="14.00">gini = 0.051</text>
<text text-anchor="middle" x="198.12" y="-258.7" font-family="Helvetica,sans-Serif" font-size="14.00">samples = 38</text>
<text text-anchor="middle" x="198.12" y="-243.7" font-family="Helvetica,sans-Serif" font-size="14.00">value = [0, 37, 1]</text>
<text text-anchor="middle" x="198.12" y="-228.7" font-family="Helvetica,sans-Serif" font-size="14.00">class = versicolor</text>
</g>
<!-- 2&#45;&gt;3 -->
<g id="edge3" class="edge">
<title>2&#45;&gt;3</title>
<path fill="none" stroke="black" d="M242.99,-341.58C238.03,-333.16 232.74,-324.2 227.61,-315.5"/>
<polygon fill="black" stroke="black" points="230.22,-314.04 222.13,-307.2 224.19,-317.59 230.22,-314.04"/>
</g>
<!-- 6 -->
<g id="node7" class="node">
<title>6</title>
<polygon fill="#8b49e7" stroke="black" points="394.38,-306 277.88,-306 277.88,-223 394.38,-223 394.38,-306"/>
<text text-anchor="middle" x="336.12" y="-288.7" font-family="Helvetica,sans-Serif" font-size="14.00">x[3] &lt;= 1.75</text>
<text text-anchor="middle" x="336.12" y="-273.7" font-family="Helvetica,sans-Serif" font-size="14.00">gini = 0.136</text>
<text text-anchor="middle" x="336.12" y="-258.7" font-family="Helvetica,sans-Serif" font-size="14.00">samples = 41</text>
<text text-anchor="middle" x="336.12" y="-243.7" font-family="Helvetica,sans-Serif" font-size="14.00">value = [0, 3, 38]</text>
<text text-anchor="middle" x="336.12" y="-228.7" font-family="Helvetica,sans-Serif" font-size="14.00">class = virginica</text>
</g>
<!-- 2&#45;&gt;6 -->
<g id="edge6" class="edge">
<title>2&#45;&gt;6</title>
<path fill="none" stroke="black" d="M291.26,-341.58C296.22,-333.16 301.51,-324.2 306.64,-315.5"/>
<polygon fill="black" stroke="black" points="310.06,-317.59 312.12,-307.2 304.03,-314.04 310.06,-317.59"/>
</g>
<!-- 4 -->
<g id="node5" class="node">
<title>4</title>
<polygon fill="#39e581" stroke="black" points="120.25,-179.5 0,-179.5 0,-111.5 120.25,-111.5 120.25,-179.5"/>
<text text-anchor="middle" x="60.12" y="-162.2" font-family="Helvetica,sans-Serif" font-size="14.00">gini = 0.0</text>
<text text-anchor="middle" x="60.12" y="-147.2" font-family="Helvetica,sans-Serif" font-size="14.00">samples = 34</text>
<text text-anchor="middle" x="60.12" y="-132.2" font-family="Helvetica,sans-Serif" font-size="14.00">value = [0, 34, 0]</text>
<text text-anchor="middle" x="60.12" y="-117.2" font-family="Helvetica,sans-Serif" font-size="14.00">class = versicolor</text>
</g>
<!-- 3&#45;&gt;4 -->
<g id="edge4" class="edge">
<title>3&#45;&gt;4</title>
<path fill="none" stroke="black" d="M149.86,-222.58C136.21,-211.01 121.38,-198.43 107.77,-186.89"/>
<polygon fill="black" stroke="black" points="110.37,-183.66 100.47,-179.86 105.84,-189 110.37,-183.66"/>
</g>
<!-- 5 -->
<g id="node6" class="node">
<title>5</title>
<polygon fill="#7beeab" stroke="black" points="258.25,-179.5 138,-179.5 138,-111.5 258.25,-111.5 258.25,-179.5"/>
<text text-anchor="middle" x="198.12" y="-162.2" font-family="Helvetica,sans-Serif" font-size="14.00">gini = 0.375</text>
<text text-anchor="middle" x="198.12" y="-147.2" font-family="Helvetica,sans-Serif" font-size="14.00">samples = 4</text>
<text text-anchor="middle" x="198.12" y="-132.2" font-family="Helvetica,sans-Serif" font-size="14.00">value = [0, 3, 1]</text>
<text text-anchor="middle" x="198.12" y="-117.2" font-family="Helvetica,sans-Serif" font-size="14.00">class = versicolor</text>
</g>
<!-- 3&#45;&gt;5 -->
<g id="edge5" class="edge">
<title>3&#45;&gt;5</title>
<path fill="none" stroke="black" d="M198.12,-222.58C198.12,-212.32 198.12,-201.27 198.12,-190.85"/>
<polygon fill="black" stroke="black" points="201.63,-190.86 198.12,-180.86 194.63,-190.86 201.63,-190.86"/>
</g>
<!-- 7 -->
<g id="node8" class="node">
<title>7</title>
<polygon fill="#ffffff" stroke="black" points="396.25,-179.5 276,-179.5 276,-111.5 396.25,-111.5 396.25,-179.5"/>
<text text-anchor="middle" x="336.12" y="-162.2" font-family="Helvetica,sans-Serif" font-size="14.00">gini = 0.5</text>
<text text-anchor="middle" x="336.12" y="-147.2" font-family="Helvetica,sans-Serif" font-size="14.00">samples = 4</text>
<text text-anchor="middle" x="336.12" y="-132.2" font-family="Helvetica,sans-Serif" font-size="14.00">value = [0, 2, 2]</text>
<text text-anchor="middle" x="336.12" y="-117.2" font-family="Helvetica,sans-Serif" font-size="14.00">class = versicolor</text>
</g>
<!-- 6&#45;&gt;7 -->
<g id="edge7" class="edge">
<title>6&#45;&gt;7</title>
<path fill="none" stroke="black" d="M336.12,-222.58C336.12,-212.32 336.12,-201.27 336.12,-190.85"/>
<polygon fill="black" stroke="black" points="339.63,-190.86 336.12,-180.86 332.63,-190.86 339.63,-190.86"/>
</g>
<!-- 8 -->
<g id="node9" class="node">
<title>8</title>
<polygon fill="#843ee6" stroke="black" points="530.38,-187 413.88,-187 413.88,-104 530.38,-104 530.38,-187"/>
<text text-anchor="middle" x="472.12" y="-169.7" font-family="Helvetica,sans-Serif" font-size="14.00">x[0] &lt;= 5.95</text>
<text text-anchor="middle" x="472.12" y="-154.7" font-family="Helvetica,sans-Serif" font-size="14.00">gini = 0.053</text>
<text text-anchor="middle" x="472.12" y="-139.7" font-family="Helvetica,sans-Serif" font-size="14.00">samples = 37</text>
<text text-anchor="middle" x="472.12" y="-124.7" font-family="Helvetica,sans-Serif" font-size="14.00">value = [0, 1, 36]</text>
<text text-anchor="middle" x="472.12" y="-109.7" font-family="Helvetica,sans-Serif" font-size="14.00">class = virginica</text>
</g>
<!-- 6&#45;&gt;8 -->
<g id="edge8" class="edge">
<title>6&#45;&gt;8</title>
<path fill="none" stroke="black" d="M383.69,-222.58C394.31,-213.44 405.67,-203.67 416.58,-194.29"/>
<polygon fill="black" stroke="black" points="418.52,-196.38 423.82,-187.2 413.95,-191.07 418.52,-196.38"/>
</g>
<!-- 9 -->
<g id="node10" class="node">
<title>9</title>
<polygon fill="#ab7bee" stroke="black" points="462.12,-68 350.12,-68 350.12,0 462.12,0 462.12,-68"/>
<text text-anchor="middle" x="406.12" y="-50.7" font-family="Helvetica,sans-Serif" font-size="14.00">gini = 0.375</text>
<text text-anchor="middle" x="406.12" y="-35.7" font-family="Helvetica,sans-Serif" font-size="14.00">samples = 4</text>
<text text-anchor="middle" x="406.12" y="-20.7" font-family="Helvetica,sans-Serif" font-size="14.00">value = [0, 1, 3]</text>
<text text-anchor="middle" x="406.12" y="-5.7" font-family="Helvetica,sans-Serif" font-size="14.00">class = virginica</text>
</g>
<!-- 8&#45;&gt;9 -->
<g id="edge9" class="edge">
<title>8&#45;&gt;9</title>
<path fill="none" stroke="black" d="M447.55,-103.73C442.38,-95.15 436.92,-86.09 431.71,-77.46"/>
<polygon fill="black" stroke="black" points="434.36,-76.06 426.2,-69.3 428.36,-79.67 434.36,-76.06"/>
</g>
<!-- 10 -->
<g id="node11" class="node">
<title>10</title>
<polygon fill="#8139e5" stroke="black" points="596.38,-68 479.88,-68 479.88,0 596.38,0 596.38,-68"/>
<text text-anchor="middle" x="538.12" y="-50.7" font-family="Helvetica,sans-Serif" font-size="14.00">gini = 0.0</text>
<text text-anchor="middle" x="538.12" y="-35.7" font-family="Helvetica,sans-Serif" font-size="14.00">samples = 33</text>
<text text-anchor="middle" x="538.12" y="-20.7" font-family="Helvetica,sans-Serif" font-size="14.00">value = [0, 0, 33]</text>
<text text-anchor="middle" x="538.12" y="-5.7" font-family="Helvetica,sans-Serif" font-size="14.00">class = virginica</text>
</g>
<!-- 8&#45;&gt;10 -->
<g id="edge10" class="edge">
<title>8&#45;&gt;10</title>
<path fill="none" stroke="black" d="M496.7,-103.73C501.87,-95.15 507.33,-86.09 512.54,-77.46"/>
<polygon fill="black" stroke="black" points="515.89,-79.67 518.05,-69.3 509.89,-76.06 515.89,-79.67"/>
</g>
</g>
</svg>
