<?xml version="1.0" encoding="UTF-8" standalone="no"?>
<!DOCTYPE svg PUBLIC "-//W3C//DTD SVG 1.1//EN"
 "http://www.w3.org/Graphics/SVG/1.1/DTD/svg11.dtd">
<!-- Generated by graphviz version 8.0.5 (20230430.1635)
 -->
<!-- Title: Tree Pages: 1 -->
<svg width="662pt" height="671pt"
 viewBox="0.00 0.00 662.38 671.00" xmlns="http://www.w3.org/2000/svg" xmlns:xlink="http://www.w3.org/1999/xlink">
<g id="graph0" class="graph" transform="scale(1 1) rotate(0) translate(4 667)">
<title>Tree</title>
<polygon fill="white" stroke="none" points="-4,4 -4,-667 658.38,-667 658.38,4 -4,4"/>
<!-- 0 -->
<g id="node1" class="node">
<title>0</title>
<polygon fill="#fffdfd" stroke="black" points="257.88,-663 126.38,-663 126.38,-580 257.88,-580 257.88,-663"/>
<text text-anchor="middle" x="192.12" y="-645.7" font-family="Helvetica,sans-Serif" font-size="14.00">x[2] &lt;= 2.45</text>
<text text-anchor="middle" x="192.12" y="-630.7" font-family="Helvetica,sans-Serif" font-size="14.00">gini = 0.667</text>
<text text-anchor="middle" x="192.12" y="-615.7" font-family="Helvetica,sans-Serif" font-size="14.00">samples = 120</text>
<text text-anchor="middle" x="192.12" y="-600.7" font-family="Helvetica,sans-Serif" font-size="14.00">value = [41, 40, 39]</text>
<text text-anchor="middle" x="192.12" y="-585.7" font-family="Helvetica,sans-Serif" font-size="14.00">class = setosa</text>
</g>
<!-- 1 -->
<g id="node2" class="node">
<title>1</title>
<polygon fill="#e58139" stroke="black" points="181.38,-536.5 64.88,-536.5 64.88,-468.5 181.38,-468.5 181.38,-536.5"/>
<text text-anchor="middle" x="123.12" y="-519.2" font-family="Helvetica,sans-Serif" font-size="14.00">gini = 0.0</text>
<text text-anchor="middle" x="123.12" y="-504.2" font-family="Helvetica,sans-Serif" font-size="14.00">samples = 41</text>
<text text-anchor="middle" x="123.12" y="-489.2" font-family="Helvetica,sans-Serif" font-size="14.00">value = [41, 0, 0]</text>
<text text-anchor="middle" x="123.12" y="-474.2" font-family="Helvetica,sans-Serif" font-size="14.00">class = setosa</text>
</g>
<!-- 0&#45;&gt;1 -->
<g id="edge1" class="edge">
<title>0&#45;&gt;1</title>
<path fill="none" stroke="black" d="M167.99,-579.58C161.62,-568.77 154.73,-557.09 148.3,-546.19"/>
<polygon fill="black" stroke="black" points="150.89,-544.7 142.8,-537.86 144.86,-548.25 150.89,-544.7"/>
<text text-anchor="middle" x="136.55" y="-555.27" font-family="Helvetica,sans-Serif" font-size="14.00">True</text>
</g>
<!-- 2 -->
<g id="node3" class="node">
<title>2</title>
<polygon fill="#fafefc" stroke="black" points="323.12,-544 199.12,-544 199.12,-461 323.12,-461 323.12,-544"/>
<text text-anchor="middle" x="261.12" y="-526.7" font-family="Helvetica,sans-Serif" font-size="14.00">x[3] &lt;= 1.55</text>
<text text-anchor="middle" x="261.12" y="-511.7" font-family="Helvetica,sans-Serif" font-size="14.00">gini = 0.5</text>
<text text-anchor="middle" x="261.12" y="-496.7" font-family="Helvetica,sans-Serif" font-size="14.00">samples = 79</text>
<text text-anchor="middle" x="261.12" y="-481.7" font-family="Helvetica,sans-Serif" font-size="14.00">value = [0, 40, 39]</text>
<text text-anchor="middle" x="261.12" y="-466.7" font-family="Helvetica,sans-Serif" font-size="14.00">class = versicolor</text>
</g>
<!-- 0&#45;&gt;2 -->
<g id="edge2" class="edge">
<title>0&#45;&gt;2</title>
<path fill="none" stroke="black" d="M216.26,-579.58C221.22,-571.16 226.51,-562.2 231.64,-553.5"/>
<polygon fill="black" stroke="black" points="235.06,-555.59 237.12,-545.2 229.03,-552.04 235.06,-555.59"/>
<text text-anchor="middle" x="243.37" y="-562.61" font-family="Helvetica,sans-Serif" font-size="14.00">False</text>
</g>
<!-- 3 -->
<g id="node4" class="node">
<title>3</title>
<polygon fill="#3ee684" stroke="black" points="253.25,-425 133,-425 133,-342 253.25,-342 253.25,-425"/>
<text text-anchor="middle" x="193.12" y="-407.7" font-family="Helvetica,sans-Serif" font-size="14.00">x[2] &lt;= 5.25</text>
<text text-anchor="middle" x="193.12" y="-392.7" font-family="Helvetica,sans-Serif" font-size="14.00">gini = 0.051</text>
<text text-anchor="middle" x="193.12" y="-377.7" font-family="Helvetica,sans-Serif" font-size="14.00">samples = 38</text>
<text text-anchor="middle" x="193.12" y="-362.7" font-family="Helvetica,sans-Serif" font-size="14.00">value = [0, 37, 1]</text>
<text text-anchor="middle" x="193.12" y="-347.7" font-family="Helvetica,sans-Serif" font-size="14.00">class = versicolor</text>
</g>
<!-- 2&#45;&gt;3 -->
<g id="edge3" class="edge">
<title>2&#45;&gt;3</title>
<path fill="none" stroke="black" d="M237.34,-460.58C232.45,-452.16 227.24,-443.2 222.19,-434.5"/>
<polygon fill="black" stroke="black" points="224.83,-433.09 216.78,-426.2 218.78,-436.6 224.83,-433.09"/>
</g>
<!-- 6 -->
<g id="node7" class="node">
<title>6</title>
<polygon fill="#8b49e7" stroke="black" points="387.38,-425 270.88,-425 270.88,-342 387.38,-342 387.38,-425"/>
<text text-anchor="middle" x="329.12" y="-407.7" font-family="Helvetica,sans-Serif" font-size="14.00">x[3] &lt;= 1.75</text>
<text text-anchor="middle" x="329.12" y="-392.7" font-family="Helvetica,sans-Serif" font-size="14.00">gini = 0.136</text>
<text text-anchor="middle" x="329.12" y="-377.7" font-family="Helvetica,sans-Serif" font-size="14.00">samples = 41</text>
<text text-anchor="middle" x="329.12" y="-362.7" font-family="Helvetica,sans-Serif" font-size="14.00">value = [0, 3, 38]</text>
<text text-anchor="middle" x="329.12" y="-347.7" font-family="Helvetica,sans-Serif" font-size="14.00">class = virginica</text>
</g>
<!-- 2&#45;&gt;6 -->
<g id="edge6" class="edge">
<title>2&#45;&gt;6</title>
<path fill="none" stroke="black" d="M284.91,-460.58C289.8,-452.16 295.01,-443.2 300.06,-434.5"/>
<polygon fill="black" stroke="black" points="303.47,-436.6 305.47,-426.2 297.42,-433.09 303.47,-436.6"/>
</g>
<!-- 4 -->
<g id="node5" class="node">
<title>4</title>
<polygon fill="#39e581" stroke="black" points="120.25,-298.5 0,-298.5 0,-230.5 120.25,-230.5 120.25,-298.5"/>
<text text-anchor="middle" x="60.12" y="-281.2" font-family="Helvetica,sans-Serif" font-size="14.00">gini = 0.0</text>
<text text-anchor="middle" x="60.12" y="-266.2" font-family="Helvetica,sans-Serif" font-size="14.00">samples = 37</text>
<text text-anchor="middle" x="60.12" y="-251.2" font-family="Helvetica,sans-Serif" font-size="14.00">value = [0, 37, 0]</text>
<text text-anchor="middle" x="60.12" y="-236.2" font-family="Helvetica,sans-Serif" font-size="14.00">class = versicolor</text>
</g>
<!-- 3&#45;&gt;4 -->
<g id="edge4" class="edge">
<title>3&#45;&gt;4</title>
<path fill="none" stroke="black" d="M146.61,-341.58C133.46,-330.01 119.16,-317.43 106.04,-305.89"/>
<polygon fill="black" stroke="black" points="108.87,-302.84 99.05,-298.86 104.24,-308.09 108.87,-302.84"/>
</g>
<!-- 5 -->
<g id="node6" class="node">
<title>5</title>
<polygon fill="#8139e5" stroke="black" points="250.12,-298.5 138.12,-298.5 138.12,-230.5 250.12,-230.5 250.12,-298.5"/>
<text text-anchor="middle" x="194.12" y="-281.2" font-family="Helvetica,sans-Serif" font-size="14.00">gini = 0.0</text>
<text text-anchor="middle" x="194.12" y="-266.2" font-family="Helvetica,sans-Serif" font-size="14.00">samples = 1</text>
<text text-anchor="middle" x="194.12" y="-251.2" font-family="Helvetica,sans-Serif" font-size="14.00">value = [0, 0, 1]</text>
<text text-anchor="middle" x="194.12" y="-236.2" font-family="Helvetica,sans-Serif" font-size="14.00">class = virginica</text>
</g>
<!-- 3&#45;&gt;5 -->
<g id="edge5" class="edge">
<title>3&#45;&gt;5</title>
<path fill="none" stroke="black" d="M193.47,-341.58C193.56,-331.32 193.66,-320.27 193.75,-309.85"/>
<polygon fill="black" stroke="black" points="197.25,-309.89 193.84,-299.86 190.25,-309.83 197.25,-309.89"/>
</g>
<!-- 7 -->
<g id="node8" class="node">
<title>7</title>
<polygon fill="#ffffff" stroke="black" points="389.25,-306 269,-306 269,-223 389.25,-223 389.25,-306"/>
<text text-anchor="middle" x="329.12" y="-288.7" font-family="Helvetica,sans-Serif" font-size="14.00">x[0] &lt;= 5.45</text>
<text text-anchor="middle" x="329.12" y="-273.7" font-family="Helvetica,sans-Serif" font-size="14.00">gini = 0.5</text>
<text text-anchor="middle" x="329.12" y="-258.7" font-family="Helvetica,sans-Serif" font-size="14.00">samples = 4</text>
<text text-anchor="middle" x="329.12" y="-243.7" font-family="Helvetica,sans-Serif" font-size="14.00">value = [0, 2, 2]</text>
<text text-anchor="middle" x="329.12" y="-228.7" font-family="Helvetica,sans-Serif" font-size="14.00">class = versicolor</text>
</g>
<!-- 6&#45;&gt;7 -->
<g id="edge7" class="edge">
<title>6&#45;&gt;7</title>
<path fill="none" stroke="black" d="M329.12,-341.58C329.12,-333.7 329.12,-325.34 329.12,-317.17"/>
<polygon fill="black" stroke="black" points="332.63,-317.2 329.12,-307.2 325.63,-317.2 332.63,-317.2"/>
</g>
<!-- 12 -->
<g id="node13" class="node">
<title>12</title>
<polygon fill="#843ee6" stroke="black" points="523.38,-306 406.88,-306 406.88,-223 523.38,-223 523.38,-306"/>
<text text-anchor="middle" x="465.12" y="-288.7" font-family="Helvetica,sans-Serif" font-size="14.00">x[2] &lt;= 4.85</text>
<text text-anchor="middle" x="465.12" y="-273.7" font-family="Helvetica,sans-Serif" font-size="14.00">gini = 0.053</text>
<text text-anchor="middle" x="465.12" y="-258.7" font-family="Helvetica,sans-Serif" font-size="14.00">samples = 37</text>
<text text-anchor="middle" x="465.12" y="-243.7" font-family="Helvetica,sans-Serif" font-size="14.00">value = [0, 1, 36]</text>
<text text-anchor="middle" x="465.12" y="-228.7" font-family="Helvetica,sans-Serif" font-size="14.00">class = virginica</text>
</g>
<!-- 6&#45;&gt;12 -->
<g id="edge12" class="edge">
<title>6&#45;&gt;12</title>
<path fill="none" stroke="black" d="M376.69,-341.58C387.31,-332.44 398.67,-322.67 409.58,-313.29"/>
<polygon fill="black" stroke="black" points="411.52,-315.38 416.82,-306.2 406.95,-310.07 411.52,-315.38"/>
</g>
<!-- 8 -->
<g id="node9" class="node">
<title>8</title>
<polygon fill="#8139e5" stroke="black" points="251.12,-179.5 139.12,-179.5 139.12,-111.5 251.12,-111.5 251.12,-179.5"/>
<text text-anchor="middle" x="195.12" y="-162.2" font-family="Helvetica,sans-Serif" font-size="14.00">gini = 0.0</text>
<text text-anchor="middle" x="195.12" y="-147.2" font-family="Helvetica,sans-Serif" font-size="14.00">samples = 1</text>
<text text-anchor="middle" x="195.12" y="-132.2" font-family="Helvetica,sans-Serif" font-size="14.00">value = [0, 0, 1]</text>
<text text-anchor="middle" x="195.12" y="-117.2" font-family="Helvetica,sans-Serif" font-size="14.00">class = virginica</text>
</g>
<!-- 7&#45;&gt;8 -->
<g id="edge8" class="edge">
<title>7&#45;&gt;8</title>
<path fill="none" stroke="black" d="M282.26,-222.58C269.01,-211.01 254.6,-198.43 241.39,-186.89"/>
<polygon fill="black" stroke="black" points="244.17,-183.8 234.33,-179.86 239.56,-189.07 244.17,-183.8"/>
</g>
<!-- 9 -->
<g id="node10" class="node">
<title>9</title>
<polygon fill="#9cf2c0" stroke="black" points="389.25,-187 269,-187 269,-104 389.25,-104 389.25,-187"/>
<text text-anchor="middle" x="329.12" y="-169.7" font-family="Helvetica,sans-Serif" font-size="14.00">x[2] &lt;= 5.45</text>
<text text-anchor="middle" x="329.12" y="-154.7" font-family="Helvetica,sans-Serif" font-size="14.00">gini = 0.444</text>
<text text-anchor="middle" x="329.12" y="-139.7" font-family="Helvetica,sans-Serif" font-size="14.00">samples = 3</text>
<text text-anchor="middle" x="329.12" y="-124.7" font-family="Helvetica,sans-Serif" font-size="14.00">value = [0, 2, 1]</text>
<text text-anchor="middle" x="329.12" y="-109.7" font-family="Helvetica,sans-Serif" font-size="14.00">class = versicolor</text>
</g>
<!-- 7&#45;&gt;9 -->
<g id="edge9" class="edge">
<title>7&#45;&gt;9</title>
<path fill="none" stroke="black" d="M329.12,-222.58C329.12,-214.7 329.12,-206.34 329.12,-198.17"/>
<polygon fill="black" stroke="black" points="332.63,-198.2 329.12,-188.2 325.63,-198.2 332.63,-198.2"/>
</g>
<!-- 10 -->
<g id="node11" class="node">
<title>10</title>
<polygon fill="#39e581" stroke="black" points="255.25,-68 135,-68 135,0 255.25,0 255.25,-68"/>
<text text-anchor="middle" x="195.12" y="-50.7" font-family="Helvetica,sans-Serif" font-size="14.00">gini = 0.0</text>
<text text-anchor="middle" x="195.12" y="-35.7" font-family="Helvetica,sans-Serif" font-size="14.00">samples = 2</text>
<text text-anchor="middle" x="195.12" y="-20.7" font-family="Helvetica,sans-Serif" font-size="14.00">value = [0, 2, 0]</text>
<text text-anchor="middle" x="195.12" y="-5.7" font-family="Helvetica,sans-Serif" font-size="14.00">class = versicolor</text>
</g>
<!-- 9&#45;&gt;10 -->
<g id="edge10" class="edge">
<title>9&#45;&gt;10</title>
<path fill="none" stroke="black" d="M279.23,-103.73C267.73,-94.33 255.52,-84.35 244.06,-74.99"/>
<polygon fill="black" stroke="black" points="246.83,-71.92 236.88,-68.3 242.4,-77.34 246.83,-71.92"/>
</g>
<!-- 11 -->
<g id="node12" class="node">
<title>11</title>
<polygon fill="#8139e5" stroke="black" points="385.12,-68 273.12,-68 273.12,0 385.12,0 385.12,-68"/>
<text text-anchor="middle" x="329.12" y="-50.7" font-family="Helvetica,sans-Serif" font-size="14.00">gini = 0.0</text>
<text text-anchor="middle" x="329.12" y="-35.7" font-family="Helvetica,sans-Serif" font-size="14.00">samples = 1</text>
<text text-anchor="middle" x="329.12" y="-20.7" font-family="Helvetica,sans-Serif" font-size="14.00">value = [0, 0, 1]</text>
<text text-anchor="middle" x="329.12" y="-5.7" font-family="Helvetica,sans-Serif" font-size="14.00">class = virginica</text>
</g>
<!-- 9&#45;&gt;11 -->
<g id="edge11" class="edge">
<title>9&#45;&gt;11</title>
<path fill="none" stroke="black" d="M329.12,-103.73C329.12,-95.7 329.12,-87.24 329.12,-79.11"/>
<polygon fill="black" stroke="black" points="332.63,-79.3 329.12,-69.3 325.63,-79.3 332.63,-79.3"/>
</g>
<!-- 13 -->
<g id="node14" class="node">
<title>13</title>
<polygon fill="#c09cf2" stroke="black" points="520.12,-187 408.12,-187 408.12,-104 520.12,-104 520.12,-187"/>
<text text-anchor="middle" x="464.12" y="-169.7" font-family="Helvetica,sans-Serif" font-size="14.00">x[0] &lt;= 5.95</text>
<text text-anchor="middle" x="464.12" y="-154.7" font-family="Helvetica,sans-Serif" font-size="14.00">gini = 0.444</text>
<text text-anchor="middle" x="464.12" y="-139.7" font-family="Helvetica,sans-Serif" font-size="14.00">samples = 3</text>
<text text-anchor="middle" x="464.12" y="-124.7" font-family="Helvetica,sans-Serif" font-size="14.00">value = [0, 1, 2]</text>
<text text-anchor="middle" x="464.12" y="-109.7" font-family="Helvetica,sans-Serif" font-size="14.00">class = virginica</text>
</g>
<!-- 12&#45;&gt;13 -->
<g id="edge13" class="edge">
<title>12&#45;&gt;13</title>
<path fill="none" stroke="black" d="M464.78,-222.58C464.71,-214.7 464.64,-206.34 464.57,-198.17"/>
<polygon fill="black" stroke="black" points="468.06,-198.17 464.47,-188.2 461.06,-198.23 468.06,-198.17"/>
</g>
<!-- 16 -->
<g id="node17" class="node">
<title>16</title>
<polygon fill="#8139e5" stroke="black" points="654.38,-179.5 537.88,-179.5 537.88,-111.5 654.38,-111.5 654.38,-179.5"/>
<text text-anchor="middle" x="596.12" y="-162.2" font-family="Helvetica,sans-Serif" font-size="14.00">gini = 0.0</text>
<text text-anchor="middle" x="596.12" y="-147.2" font-family="Helvetica,sans-Serif" font-size="14.00">samples = 34</text>
<text text-anchor="middle" x="596.12" y="-132.2" font-family="Helvetica,sans-Serif" font-size="14.00">value = [0, 0, 34]</text>
<text text-anchor="middle" x="596.12" y="-117.2" font-family="Helvetica,sans-Serif" font-size="14.00">class = virginica</text>
</g>
<!-- 12&#45;&gt;16 -->
<g id="edge16" class="edge">
<title>12&#45;&gt;16</title>
<path fill="none" stroke="black" d="M510.94,-222.58C523.9,-211.01 537.98,-198.43 550.9,-186.89"/>
<polygon fill="black" stroke="black" points="552.64,-190.13 557.77,-180.86 547.98,-184.91 552.64,-190.13"/>
</g>
<!-- 14 -->
<g id="node15" class="node">
<title>14</title>
<polygon fill="#39e581" stroke="black" points="523.25,-68 403,-68 403,0 523.25,0 523.25,-68"/>
<text text-anchor="middle" x="463.12" y="-50.7" font-family="Helvetica,sans-Serif" font-size="14.00">gini = 0.0</text>
<text text-anchor="middle" x="463.12" y="-35.7" font-family="Helvetica,sans-Serif" font-size="14.00">samples = 1</text>
<text text-anchor="middle" x="463.12" y="-20.7" font-family="Helvetica,sans-Serif" font-size="14.00">value = [0, 1, 0]</text>
<text text-anchor="middle" x="463.12" y="-5.7" font-family="Helvetica,sans-Serif" font-size="14.00">class = versicolor</text>
</g>
<!-- 13&#45;&gt;14 -->
<g id="edge14" class="edge">
<title>13&#45;&gt;14</title>
<path fill="none" stroke="black" d="M463.75,-103.73C463.68,-95.7 463.6,-87.24 463.53,-79.11"/>
<polygon fill="black" stroke="black" points="467.02,-79.27 463.43,-69.3 460.02,-79.33 467.02,-79.27"/>
</g>
<!-- 15 -->
<g id="node16" class="node">
<title>15</title>
<polygon fill="#8139e5" stroke="black" points="653.12,-68 541.12,-68 541.12,0 653.12,0 653.12,-68"/>
<text text-anchor="middle" x="597.12" y="-50.7" font-family="Helvetica,sans-Serif" font-size="14.00">gini = 0.0</text>
<text text-anchor="middle" x="597.12" y="-35.7" font-family="Helvetica,sans-Serif" font-size="14.00">samples = 2</text>
<text text-anchor="middle" x="597.12" y="-20.7" font-family="Helvetica,sans-Serif" font-size="14.00">value = [0, 0, 2]</text>
<text text-anchor="middle" x="597.12" y="-5.7" font-family="Helvetica,sans-Serif" font-size="14.00">class = virginica</text>
</g>
<!-- 13&#45;&gt;15 -->
<g id="edge15" class="edge">
<title>13&#45;&gt;15</title>
<path fill="none" stroke="black" d="M513.65,-103.73C524.95,-94.42 536.95,-84.54 548.22,-75.26"/>
<polygon fill="black" stroke="black" points="550.18,-77.36 555.68,-68.3 545.73,-71.95 550.18,-77.36"/>
</g>
</g>
</svg>
